<?xml version="1.0" encoding="UTF-8"?>
<!-- Generator: Adobe Illustrator 23.0.1, SVG Export Plug-In . SVG Version: 6.00 Build 0)  -->
<svg version="1.1" id="Layer_1" xmlns="http://www.w3.org/2000/svg" xmlns:xlink="http://www.w3.org/1999/xlink" x="0px" y="0px" viewBox="0 0 414.99 402.7" style="enable-background:new 0 0 414.99 402.7;" xml:space="preserve">
<style type="text/css">
	.st0{fill:#FFEB0F;}
	.st1{fill:#84152F;}
	.st2{fill:none;stroke:#541020;stroke-width:3;stroke-linecap:round;stroke-linejoin:round;stroke-miterlimit:10;}
	.st3{fill:#1C1D1C;}
	.st4{fill:none;stroke:#009FE3;stroke-width:3;stroke-linecap:round;stroke-miterlimit:10;}
</style>
<path class="st0" d="M187.29,230.29l-30.62,62.76c10.55,4.93,28.77,12.87,28.77,12.87l-17.25,96.78l69.42-125.3l-22.13-7.45  l29.32-49.23"/>
<g>
	<path class="st1" d="M385.73,144.83c0.29-3.39,0.43-6.82,0.37-10.3c-0.83-49.47-37.86-89.23-83.84-91.44   c-16.87-21.72-47.77-50.28-97.72-33.11c-54.28-22.29-99.85,7.87-114.99,56.71c-33.14,10.25-57.09,42.99-56.45,81.35   c0,0.17,0.02,0.34,0.02,0.52c-17.73,3.27-31.08,19.78-30.75,39.46c0.36,21.75,17.29,39.07,37.8,38.69   c10.31-0.19,19.56-4.83,26.17-12.14c13.16,9.86,29.28,15.54,46.63,15.21c14.08-0.26,27.22-4.47,38.53-11.57   c15.62,7.71,33.09,11.89,51.48,11.54c18.22-0.34,35.4-5.08,50.65-13.23c13.51,8.45,29.31,13.17,46.14,12.86   c14.6-0.27,28.29-4.33,40.29-11.23c7.87,8.48,18.84,13.68,30.94,13.45c23.4-0.44,42.04-20.91,41.63-45.73   C412.31,167.12,401.22,151.28,385.73,144.83z"/>
	<path class="st2" d="M65.06,214.66c-6.97-19.6-2.93-41.96,5.64-60.84c7.16-15.77,19.32-31.16,35.75-32.91"/>
	<path class="st2" d="M80.34,137.57c5.68-12.35,2.8-30.14-4.55-41.46"/>
	<path class="st2" d="M386.6,143.58c-2.07,5.06-7.19,9.91-10.66,14.02"/>
	<path class="st2" d="M355.78,124.08"/>
	<path class="st2" d="M385.65,143.6"/>
	<path class="st2" d="M335.66,53.63c-4.37,9.71-11.76,17.87-20.75,22.87"/>
	<path class="st2" d="M374,88.96c-2.99-3.52-20.95-2.74-26.08,3.43"/>
	<path class="st2" d="M86.7,67.69c7.63-0.15,15.28,1.02,22.57,3.43"/>
	<path class="st2" d="M137.26,86.03c11.85,0.06,24.24-0.01,34.77-5.77c6.2-3.39,11.37-8.56,16.16-13.93"/>
	<path class="st2" d="M141.9,185.3c4.79-8.94,9.63-17.95,15.99-25.71c6.37-7.76,14.45-14.28,23.83-16.89   c3.96-1.1,8.1-1.5,11.96-2.93c4.24-1.57,7.99-4.31,11.68-7.02c9.71-7.14,19.84-14.79,24.85-26.13"/>
	<path class="st2" d="M204.57,133.52c1.69-3.98,1.03-8.62-0.17-12.79c-1.96-6.78-5.3-13.1-9.72-18.41"/>
	<path class="st2" d="M208.48,172.78c2.61-4.02,6.12-7.38,10.16-9.72c7.89-4.58,17.25-5.12,26.25-5.08   c6.17,0.03,12.52,0.33,18.15,2.99"/>
	<path class="st2" d="M316.73,162.6c-7.04-20.51-22.1-37.78-40.83-46.84"/>
	<path class="st2" d="M306.57,198.92c7.47-4.19,12.03-8,20.34-9.62c2.83-0.55,8.92-1.24,14.54,1.94   c10.28,5.81,14.32,4.56,22.05,7.06"/>
	<path class="st2" d="M146.33,47.65c0.89-3.88,3.6-7.04,6.69-9.32c7.77-5.75,18.51-6.6,27-2.16"/>
	<path class="st2" d="M219.8,37.29c10.46,9.9,24.81,15.03,38.79,13.86"/>
	<path class="st2" d="M218.06,79.45c6.29-8.04,13.53-15.24,21.5-21.39c4.19-3.23,8.78-6.1,13.93-6.72"/>
	<path class="st2" d="M284.97,79.75c-1.19-4.14-2.41-8.33-4.51-12.05c-1.24-2.19-2.77-4.18-4.38-6.07   c-1.63-1.92-3.37-3.76-5.36-5.25c-4.54-3.4-10.28-6.11-15.75-5.07"/>
	<path class="st3" d="M370.23,234.09c-11.47,0-22.23-4.55-30.59-12.89c-12.4,6.82-25.79,10.41-39.84,10.67   c-16.22,0.3-32.21-4.02-46.26-12.52c-15.79,8.23-32.78,12.57-50.52,12.9c-17.92,0.26-35.2-3.44-51.4-11.23   c-11.74,7.11-25.06,11-38.62,11.25c-16.72,0.29-32.64-4.69-46.4-14.48c-7.17,7.19-16.47,11.22-26.4,11.41   c-10.53,0.19-20.54-3.97-28.14-11.74c-7.59-7.77-11.88-18.21-12.06-29.4c-0.33-20.04,12.47-37.18,30.72-41.54   c0.02-37.47,23.21-70.81,56.97-81.85c8.28-25.71,24.49-45.69,45.76-56.36c21.42-10.74,46.01-11.08,71.14-0.98   c38.09-12.78,71.32-1.58,98.8,33.31c46.94,2.83,84.21,43.83,85.04,93.83c0.05,2.84-0.03,5.77-0.24,8.73   c16.01,7.44,26.45,23.96,26.77,42.6c0.44,26.15-19.27,47.81-43.94,48.27C370.77,234.09,370.5,234.09,370.23,234.09z M340.49,215.05   l1.24,1.34c7.79,8.4,17.95,12.88,29.22,12.7c10.69-0.2,20.67-4.8,28.09-12.96c7.43-8.16,11.41-18.89,11.22-30.23   c-0.29-17.23-10.26-32.44-25.4-38.75l-1.65-0.69l0.16-1.87c0.3-3.41,0.42-6.78,0.36-10.02c-0.8-47.75-36.64-86.84-81.59-88.99   l-1.05-0.05l-0.66-0.86c-26.45-34.07-58.48-44.94-95.18-32.32l-0.8,0.27l-0.78-0.32c-24.17-9.93-47.75-9.75-68.21,0.52   c-20.43,10.25-35.95,29.65-43.69,54.64l-0.39,1.25l-1.19,0.37C57.36,79.25,34.84,111.7,35.45,148l0.03,2.14l-1.97,0.89   c-16.99,3.13-29.11,18.67-28.8,36.95c0.16,9.85,3.94,19.05,10.63,25.89c6.69,6.84,15.5,10.53,24.78,10.34   c9.34-0.18,18.04-4.22,24.51-11.37l1.4-1.55l1.66,1.24c13.29,9.96,28.88,15.09,45.23,14.75c13.16-0.25,26.08-4.13,37.38-11.22   l1.07-0.67l1.12,0.56c15.87,7.83,32.82,11.67,50.45,11.31c17.46-0.33,34.16-4.69,49.63-12.97l1.15-0.61l1.11,0.69   c13.56,8.48,28.95,12.76,44.9,12.51c13.86-0.26,27.06-3.94,39.22-10.93L340.49,215.05z"/>
</g>
<line class="st4" x1="72.66" y1="245.52" x2="61.08" y2="288.46"/>
<line class="st4" x1="140.84" y1="316.78" x2="128.26" y2="363.45"/>
<line class="st4" x1="120.4" y1="244.62" x2="99.32" y2="322.81"/>
<line class="st4" x1="282.91" y1="248.26" x2="268.88" y2="300.27"/>
<line class="st4" x1="291.69" y1="314.99" x2="280.51" y2="356.44"/>
<line class="st4" x1="330.95" y1="246.52" x2="316.73" y2="299.26"/>
</svg>